<?xml version="1.0" encoding="utf-8"?>
<!-- Generator: Adobe Illustrator 14.0.0, SVG Export Plug-In . SVG Version: 6.00 Build 43363)  -->
<!DOCTYPE svg PUBLIC "-//W3C//DTD SVG 1.1//EN" "http://www.w3.org/Graphics/SVG/1.1/DTD/svg11.dtd">
<svg version="1.1"
	 id="vw" xmlns:dc="http://purl.org/dc/elements/1.1/" xmlns:cc="http://creativecommons.org/ns#" xmlns:rdf="http://www.w3.org/1999/02/22-rdf-syntax-ns#" xmlns:svg="http://www.w3.org/2000/svg" xmlns:sodipodi="http://sodipodi.sourceforge.net/DTD/sodipodi-0.dtd" xmlns:inkscape="http://www.inkscape.org/namespaces/inkscape" sodipodi:version="0.32" inkscape:version="0.46" sodipodi:docname="Volkswagen Logo.svg" inkscape:output_extension="org.inkscape.output.svg.inkscape"
	 xmlns="http://www.w3.org/2000/svg" xmlns:xlink="http://www.w3.org/1999/xlink" x="0px" y="0px" width="400px" height="300px"
	 viewBox="0 0 400 300" enable-background="new 0 0 400 300" xml:space="preserve">
<path id="bg" fill="#3266BC" d="M201.427,26.796c68.028,0,123.512,55.476,123.512,123.606c0,67.926-55.482,123.504-123.512,123.504
	c-68.028,0-123.606-55.578-123.606-123.504c0-68.132,55.578-123.613,123.605-123.613"/>
<g id="white">
	<path fill="none" d="M108.796,150.402c0,34.824,19.439,65.396,48.192,81.088l-42.927-111.865
		C110.621,129.24,108.796,139.572,108.796,150.402z"/>
	<path fill="none" d="M247.992,70.324l-27.125,74.71h-38.271l-27.234-75.017c-10.018,5.771-18.826,13.362-26.114,22.374
		l38.674,100.324l14.167-36.645h37.156l14.168,36.645L272.491,91.18C265.606,82.873,257.306,75.788,247.992,70.324z"/>
	<path fill="none" d="M200.62,175.708l-23.896,61.956l-0.098,1.923c7.893,2.229,16.193,3.338,24.802,3.338
		c8.097,0,15.893-1.013,23.386-2.935l-0.301-2.326L200.62,175.708z"/>
	<path fill="none" d="M288.088,117.602l-44.041,114.9c29.566-15.485,49.909-46.469,49.909-82.1
		C293.956,138.86,291.932,127.825,288.088,117.602z"/>
	<polygon fill="#FFFFFF" points="201.427,42.483 201.43,42.483 201.433,42.483 	"/>
	<path fill="#FFFFFF" d="M201.43,42.483C142.106,42.485,93.615,90.976,93.615,150.402c0,59.324,48.493,107.715,107.812,107.715
		c59.325,0,107.817-48.392,107.817-107.715C309.244,90.976,260.753,42.485,201.43,42.483z M201.427,57.771
		c8.104,0,16.098,1.012,23.692,3.037L201.735,125.5l-23.488-64.796C185.638,58.783,193.434,57.771,201.427,57.771z M108.796,150.402
		c0-10.831,1.826-21.163,5.267-30.777l42.927,111.865C128.235,215.798,108.796,185.227,108.796,150.402z M201.427,242.925
		c-8.607,0-16.908-1.106-24.801-3.338l0.098-1.923l23.896-61.956l23.893,61.956l0.301,2.326
		C217.319,241.912,209.523,242.925,201.427,242.925z M219.246,156.07H182.09l-14.167,36.646L129.248,92.391
		c7.288-9.012,16.097-16.603,26.114-22.374l27.234,75.017h38.271l27.125-74.71c9.314,5.463,17.614,12.549,24.5,20.856
		l-39.078,101.535L219.246,156.07z M244.047,232.502l44.041-114.9c3.846,10.223,5.868,21.258,5.868,32.801
		C293.956,186.033,273.613,217.017,244.047,232.502z"/>
</g>
</svg>
